/* XPM */
static char * amblight_xpm[] = {
"105 20 117 2",
"  	c #000000",
". 	c #B6B6B6",
"+ 	c #FFFFFF",
"@ 	c #686868",
"# 	c #787878",
"$ 	c #D0D0D0",
"% 	c #5D5D5D",
"& 	c #D8D8D8",
"* 	c #ECECEC",
"= 	c #BDBDBD",
"- 	c #696969",
"; 	c #D4D4D4",
"> 	c #7E7E7E",
", 	c #E2E2E2",
"' 	c #FCFCFC",
") 	c #F0F0F0",
"! 	c #0D0D0D",
"~ 	c #C8C8C8",
"{ 	c #A3A3A3",
"] 	c #888888",
"^ 	c #2A2A2A",
"/ 	c #F6F6F6",
"( 	c #454545",
"_ 	c #9F9F9F",
": 	c #CECECE",
"< 	c #636363",
"[ 	c #D6D6D6",
"} 	c #F7F7F7",
"| 	c #F9F9F9",
"1 	c #DBDBDB",
"2 	c #555555",
"3 	c #F5F5F5",
"4 	c #FBFBFB",
"5 	c #E3E3E3",
"6 	c #7A7A7A",
"7 	c #666666",
"8 	c #D7D7D7",
"9 	c #8B8B8B",
"0 	c #1C1C1C",
"a 	c #B3B3B3",
"b 	c #EDEDED",
"c 	c #F1F1F1",
"d 	c #C0C0C0",
"e 	c #2E2E2E",
"f 	c #585858",
"g 	c #D1D1D1",
"h 	c #E7E7E7",
"i 	c #939393",
"j 	c #A2A2A2",
"k 	c #9A9A9A",
"l 	c #3D3D3D",
"m 	c #383838",
"n 	c #DCDCDC",
"o 	c #F4F4F4",
"p 	c #F2F2F2",
"q 	c #606060",
"r 	c #DDDDDD",
"s 	c #FEFEFE",
"t 	c #989898",
"u 	c #868686",
"v 	c #D9D9D9",
"w 	c #E5E5E5",
"x 	c #818181",
"y 	c #3B3B3B",
"z 	c #757575",
"A 	c #E9E9E9",
"B 	c #EAEAEA",
"C 	c #898989",
"D 	c #6C6C6C",
"E 	c #B4B4B4",
"F 	c #EEEEEE",
"G 	c #8C8C8C",
"H 	c #404040",
"I 	c #FAFAFA",
"J 	c #ACACAC",
"K 	c #565656",
"L 	c #535353",
"M 	c #A9A9A9",
"N 	c #E8E8E8",
"O 	c #626262",
"P 	c #515151",
"Q 	c #FDFDFD",
"R 	c #9C9C9C",
"S 	c #DEDEDE",
"T 	c #4D4D4D",
"U 	c #929292",
"V 	c #D3D3D3",
"W 	c #6A6A6A",
"X 	c #9E9E9E",
"Y 	c #B0B0B0",
"Z 	c #ADADAD",
"` 	c #F8F8F8",
" .	c #D5D5D5",
"..	c #AAAAAA",
"+.	c #C1C1C1",
"@.	c #9B9B9B",
"#.	c #B7B7B7",
"$.	c #222222",
"%.	c #959595",
"&.	c #CACACA",
"*.	c #C4C4C4",
"=.	c #808080",
"-.	c #AFAFAF",
";.	c #9D9D9D",
">.	c #D2D2D2",
",.	c #8A8A8A",
"'.	c #8D8D8D",
").	c #A7A7A7",
"!.	c #161616",
"~.	c #999999",
"{.	c #E0E0E0",
"].	c #E6E6E6",
"^.	c #CCCCCC",
"/.	c #B9B9B9",
"(.	c #6E6E6E",
"_.	c #353535",
":.	c #EBEBEB",
"                                                                                                                                                                                                                  ",
"          . + + @                                                   # + $                     % + &       % + &                                 # + $                                                             ",
"          * + + =                                                   # + $                     % + &       % + &                                 # + $                     - + ;                                   ",
"        > + , ' ) !                                                 # + $                     % + &                                             # + $                     - + ;                                   ",
"        ~ + { & + ]                                                 # + $                     % + &                                             # + $                     - + ;                                   ",
"      ^ / ' ( _ + :           # + $ < [ } | 1 -   2 : 3 4 5 6       # + $ 7 8 } 4 , 9         % + &       % + &         0 a b ' c d e / c       # + $ f g / 4 h i       . + + + + + + j                           ",
"      k + &   l 4 | m         # + n o + + + + p q ) + + + + } (     # + r 3 + + + + s t       % + &       % + &         : + + + + + 1 } c       # + n p + + + + s u     . + + + + + + j                           ",
"      v + _     [ + j         # + + w x y z A + 3 B C l D 5 + E     # + + F G H D g + / m     % + &       % + &       G + I J K L M I + c       # + + N ] l O ; + &       - + ;                                   ",
"    P Q 4 y     R + S         # + } T       U + 4 q       6 + V     # + Q W         5 + X     % + &       % + &       $ + Y         Z + c       # + ` L       l 4 o       - + ;                                   ",
"    Y +  .      m I s %       # + 1         7 + w         m + ,     # + 5           ..+ +.    % + &       % + &       B + L         ( + c       # + 1           * '       - + ;                                   ",
"    N + @.        ; + #.      # + $         % + 1         $.+ w     # + ;           %.+ &.    % + &       % + &       c Q             4 c       # + $           A s       - + ;                                   ",
"  z + + + + + + + + + b       # + $         % + 1         $.+ w     # + 5           ..+ +.    % + &       % + &       B + L         ( + c       # + $           A s       - + ;                                   ",
"  *.+ + + + + + + + + + =.    # + $         % + 1         $.+ w     # + Q -         , + X     % + &       % + &       g + -.        J + c       # + $           A s       < + &                                   ",
"0 o + ;.            >.+ &.    # + $         % + 1         $.+ w     # + + b ,.l W : + / m     % + &       % + &       '.+ I ..L P ).| + c       # + $           A s       m + o W !.                              ",
"i + c $.            6 + } e   # + $         % + 1         $.+ w     # + r / + + + + s ~.      % + &       % + &         $ + + + + + 1 ` F       # + $           A s         {.+ + + + j                           ",
" .+ E                 , + @.  # + $         % + 1         $.+ w     # + $ - & } 4 5 G         % + &       % + &         0 E F ' p +.P + ].      # + $           A s         O 8 } + + j                           ",
"                                                                                                                                    ).+ ^.                                                                        ",
"                                                                                                                        /.Y (._.< -.| + 9                                                                         ",
"                                                                                                                        ~ + + + + + + $                                                                           ",
"                                                                                                                        K *.:.I I ].J !.                                                                          "};
