/* XPM */
static char * Angle_xpm[] = {
"105 20 114 2",
"  	c #000000",
". 	c #B6B6B6",
"+ 	c #FFFFFF",
"@ 	c #686868",
"# 	c #5D5D5D",
"$ 	c #D8D8D8",
"% 	c #ECECEC",
"& 	c #BDBDBD",
"* 	c #7E7E7E",
"= 	c #E2E2E2",
"- 	c #FCFCFC",
"; 	c #F0F0F0",
"> 	c #0D0D0D",
", 	c #C8C8C8",
"' 	c #A3A3A3",
") 	c #888888",
"! 	c #2A2A2A",
"~ 	c #F6F6F6",
"{ 	c #454545",
"] 	c #9F9F9F",
"^ 	c #CECECE",
"/ 	c #787878",
"( 	c #D0D0D0",
"_ 	c #585858",
": 	c #D1D1D1",
"< 	c #FBFBFB",
"[ 	c #E7E7E7",
"} 	c #939393",
"| 	c #1C1C1C",
"1 	c #B3B3B3",
"2 	c #EDEDED",
"3 	c #F1F1F1",
"4 	c #C0C0C0",
"5 	c #2E2E2E",
"6 	c #828282",
"7 	c #D7D7D7",
"8 	c #F5F5F5",
"9 	c #FDFDFD",
"0 	c #F3F3F3",
"a 	c #666666",
"b 	c #9A9A9A",
"c 	c #3D3D3D",
"d 	c #F9F9F9",
"e 	c #383838",
"f 	c #DCDCDC",
"g 	c #F2F2F2",
"h 	c #FEFEFE",
"i 	c #868686",
"j 	c #DBDBDB",
"k 	c #F7F7F7",
"l 	c #A9A9A9",
"m 	c #F8F8F8",
"n 	c #737373",
"o 	c #D9D9D9",
"p 	c #D6D6D6",
"q 	c #A2A2A2",
"r 	c #E8E8E8",
"s 	c #626262",
"t 	c #D4D4D4",
"u 	c #8C8C8C",
"v 	c #FAFAFA",
"w 	c #ACACAC",
"x 	c #565656",
"y 	c #535353",
"z 	c #707070",
"A 	c #F4F4F4",
"B 	c #C3C3C3",
"C 	c #E3E3E3",
"D 	c #515151",
"E 	c #3B3B3B",
"F 	c #9C9C9C",
"G 	c #DEDEDE",
"H 	c #B0B0B0",
"I 	c #ADADAD",
"J 	c #858585",
"K 	c #555555",
"L 	c #D5D5D5",
"M 	c #EAEAEA",
"N 	c #7F7F7F",
"O 	c #9B9B9B",
"P 	c #B7B7B7",
"Q 	c #E9E9E9",
"R 	c #757575",
"S 	c #606060",
"T 	c #C4C4C4",
"U 	c #808080",
"V 	c #AFAFAF",
"W 	c #CBCBCB",
"X 	c #9D9D9D",
"Y 	c #D2D2D2",
"Z 	c #CACACA",
"` 	c #8D8D8D",
" .	c #AAAAAA",
"..	c #A7A7A7",
"+.	c #727272",
"@.	c #767676",
"#.	c #4D4D4D",
"$.	c #7C7C7C",
"%.	c #B9B9B9",
"&.	c #222222",
"*.	c #7A7A7A",
"=.	c #EEEEEE",
"-.	c #A4A4A4",
";.	c #EBEBEB",
">.	c #B4B4B4",
",.	c #C1C1C1",
"'.	c #E6E6E6",
").	c #777777",
"!.	c #656565",
"~.	c #CCCCCC",
"{.	c #6E6E6E",
"].	c #353535",
"^.	c #636363",
"/.	c #8B8B8B",
"                                                                                                                                                                                                                  ",
"                                                                                                                                                                                                                  ",
"          . + + @                                                                 # + $                                                                                                                           ",
"          % + + &                                                                 # + $                                                                                                                           ",
"        * + = - ; >                                                               # + $                                                                                                                           ",
"        , + ' $ + )                                                               # + $                                                                                                                           ",
"      ! ~ - { ] + ^           / + ( _ : ~ < [ }           | 1 2 - 3 4 5 ~ 3       # + $           6 7 8 9 0 ( a                                                                                                   ",
"      b + $   c < d e         / + f g + + + + h i         ^ + + + + + j k 3       # + $         l h + + + + + m n                                                                                                 ",
"      o + ]     p + q         / + + r ) c s t + $       u + v w x y l v + 3       # + $       z 9 A ' _ 5 a B + C                                                                                                 ",
"    D 9 < E     F + G         / + m y       c < A       ( + H         I + 3       # + $       , + J           j + K                                                                                               ",
"    H + L       e v h #       / + j           % -       M + y         { + 3       # + $       [ + h h h h + + + + N                                                                                               ",
"    r + O         t + P       / + (           Q h       3 9             < 3       # + $       ; + + + + + + + + + J                                                                                               ",
"  R + + + + + + + + + 2       / + (           Q h       M + y         { + 3       # + $       Q + S                                                                                                               ",
"  T + + + + + + + + + + U     / + (           Q h       : + V         w + 3       # + $       W + 4                                                                                                               ",
"| A + X             Y + Z     / + (           Q h       ` + v  .y D ..d + 3       # + $       +.9 + , @.c #.$.%.o                                                                                                 ",
"} + 3 &.            *.+ k 5   / + (           Q h         ( + + + + + j m =.      # + $         -.9 + + + + + + ;.                                                                                                ",
"L + >.                = + O   / + (           Q h         | >.=.- g ,.D + '.      # + $           ).( 3 - ~ '.& !.                                                                                                ",
"                                                                      ..+ ~.                                                                                                                                      ",
"                                                          %.H {.].^.V d + /.                                                                                                                                      ",
"                                                          , + + + + + + (                                                                                                                                         "};
