/* XPM */
static char * bumpmap_xpm[] = {
"105 20 121 2",
"  	c #000000",
". 	c #323232",
"+ 	c #FFFFFF",
"@ 	c #FCFCFC",
"# 	c #EEEEEE",
"$ 	c #C6C6C6",
"% 	c #535353",
"& 	c #F1F1F1",
"* 	c #515151",
"= 	c #F8F8F8",
"- 	c #494949",
"; 	c #939393",
"> 	c #F3F3F3",
", 	c #BDBDBD",
"' 	c #A7A7A7",
") 	c #D6D6D6",
"! 	c #CBCBCB",
"~ 	c #949494",
"{ 	c #BCBCBC",
"] 	c #EFEFEF",
"^ 	c #787878",
"/ 	c #D0D0D0",
"( 	c #636363",
"_ 	c #F7F7F7",
": 	c #F9F9F9",
"< 	c #DBDBDB",
"[ 	c #696969",
"} 	c #555555",
"| 	c #CECECE",
"1 	c #F5F5F5",
"2 	c #FBFBFB",
"3 	c #E3E3E3",
"4 	c #7A7A7A",
"5 	c #666666",
"6 	c #D7D7D7",
"7 	c #E2E2E2",
"8 	c #8B8B8B",
"9 	c #CACACA",
"0 	c #EBEBEB",
"a 	c #9B9B9B",
"b 	c #454545",
"c 	c #909090",
"d 	c #F2F2F2",
"e 	c #DCDCDC",
"f 	c #F4F4F4",
"g 	c #606060",
"h 	c #F0F0F0",
"i 	c #DDDDDD",
"j 	c #FEFEFE",
"k 	c #989898",
"l 	c #B2B2B2",
"m 	c #9D9D9D",
"n 	c #E5E5E5",
"o 	c #818181",
"p 	c #3B3B3B",
"q 	c #757575",
"r 	c #E9E9E9",
"s 	c #EAEAEA",
"t 	c #898989",
"u 	c #3D3D3D",
"v 	c #6C6C6C",
"w 	c #B4B4B4",
"x 	c #8C8C8C",
"y 	c #404040",
"z 	c #D1D1D1",
"A 	c #F6F6F6",
"B 	c #383838",
"C 	c #A0A0A0",
"D 	c #2E2E2E",
"E 	c #565656",
"F 	c #474747",
"G 	c #C8C8C8",
"H 	c #262626",
"I 	c #4D4D4D",
"J 	c #929292",
"K 	c #D3D3D3",
"L 	c #FDFDFD",
"M 	c #6A6A6A",
"N 	c #9E9E9E",
"O 	c #B6B6B6",
"P 	c #7D7D7D",
"Q 	c #CFCFCF",
"R 	c #AAAAAA",
"S 	c #C1C1C1",
"T 	c #686868",
"U 	c #CCCCCC",
"V 	c #ABABAB",
"W 	c #FAFAFA",
"X 	c #5C5C5C",
"Y 	c #5D5D5D",
"Z 	c #222222",
"` 	c #D4D4D4",
" .	c #959595",
"..	c #717171",
"+.	c #B1B1B1",
"@.	c #8D8D8D",
"#.	c #C0C0C0",
"$.	c #777777",
"%.	c #161616",
"&.	c #868686",
"*.	c #D9D9D9",
"=.	c #4B4B4B",
"-.	c #7C7C7C",
";.	c #353535",
">.	c #A5A5A5",
",.	c #EDEDED",
"'.	c #8A8A8A",
").	c #D2D2D2",
"!.	c #5A5A5A",
"~.	c #A1A1A1",
"{.	c #C2C2C2",
"].	c #999999",
"^.	c #838383",
"/.	c #D5D5D5",
"(.	c #828282",
"_.	c #1C1C1C",
":.	c #BBBBBB",
"<.	c #D8D8D8",
"[.	c #8E8E8E",
"}.	c #DEDEDE",
"|.	c #A2A2A2",
"                                                                                                                                                                                                                  ",
"  . + + + + + @ # $ %                                                                                                                                                                                             ",
"  . + + + + + + + + & *                                                                                                                                                                                           ",
"  . + =       - ; > + ,                                                                                                                                                                                           ",
"  . + =           ' + )                                                                                                                                                                                           ",
"  . + =           ' + !       ~ + {           = ]       ^ + / ( ) _ : < [   } | 1 2 3 4       ^ + / 5 6 _ 2 7 8         ^ + / ( ) _ : < [   } | 1 2 3 4         4 9 0 2 = 7 a         ^ + / 5 6 _ 2 7 8           ",
"  . + =       b c d + 8       ~ + {           = ]       ^ + e f + + + + d g h + + + + _ b     ^ + i 1 + + + + j k       ^ + e f + + + + d g h + + + + _ b       + + + + + + + l       ^ + i 1 + + + + j k         ",
"  . + + + + + + + 0 m         ~ + {           = ]       ^ + + n o p q r + 1 s t u v 3 + w     ^ + + # x y v z + A B     ^ + + n o p q r + 1 s t u v 3 + w       n C [ D E ' : 2 F     ^ + + # x y v z + A B       ",
"  . + + + + + + + 2 G H       ~ + {           = ]       ^ + _ I       J + 2 g       4 + K     ^ + L M         3 + N     ^ + _ I       J + 2 g       4 + K                   O + ~     ^ + L M         3 + N       ",
"  . + =       p P i + Q       ~ + {           = ]       ^ + <         5 + n         B + 7     ^ + 3           R + S     ^ + <         5 + n         B + 7       T U ] 2 + + + + V     ^ + 3           R + S       ",
"  . + =           p W j X     ~ + {           = ]       ^ + /         Y + <         Z + n     ^ + `            .+ 9     ^ + /         Y + <         Z + n     ..= + + + + + + + +.    ^ + `            .+ 9       ",
"  . + =             0 + @.    J + #.        . j ]       ^ + /         Y + <         Z + n     ^ + 3           R + S     ^ + /         Y + <         Z + n     / + z $.y %.  V + +.    ^ + 3           R + S       ",
"  . + =           p W + &.    o + *.        a + ]       ^ + /         Y + <         Z + n     ^ + L [         7 + N     ^ + /         Y + <         Z + n     3 + =.        < + +.    ^ + L [         7 + N       ",
"  . + =       p -.e + = ;.    B 2 j R F % >._ + ]       ^ + /         Y + <         Z + n     ^ + + ,.'.u M | + A B     ^ + /         Y + <         Z + n     ).+ $ !.. q z + + +.    ^ + + ,.'.u M | + A B       ",
"  . + + + + + + + + j ~.        {.+ + + + + ` = ]       ^ + /         Y + <         Z + n     ^ + i A + + + + j ].      ^ + /         Y + <         Z + n     ^.j + + + + j / + +.    ^ + i A + + + + j ].        ",
"  . + + + + + L > /.(.          _.:.& L h :.Z = ]       ^ + /         Y + <         Z + n     ^ + / [ <._ 2 3 x         ^ + /         Y + <         Z + n       [.3 : = }.&.|.+ +.    ^ + / [ <._ 2 3 x           ",
"                                                                                              ^ + /                                                                                   ^ + /                       ",
"                                                                                              ^ + /                                                                                   ^ + /                       ",
"                                                                                              ^ + /                                                                                   ^ + /                       ",
"                                                                                              ^ + /                                                                                   ^ + /                       "};
