/* XPM */
static char * Cone_xpm[] = {
"105 20 105 2",
"  	c #000000",
". 	c #5F5F5F",
"+ 	c #C2C2C2",
"@ 	c #E9E9E9",
"# 	c #F8F8F8",
"$ 	c #FBFBFB",
"% 	c #F0F0F0",
"& 	c #E2E2E2",
"* 	c #B7B7B7",
"= 	c #656565",
"- 	c #A6A6A6",
"; 	c #FCFCFC",
"> 	c #FFFFFF",
", 	c #F1F1F1",
"' 	c #9E9E9E",
") 	c #D9D9D9",
"! 	c #8D8D8D",
"~ 	c #494949",
"{ 	c #2E2E2E",
"] 	c #626262",
"^ 	c #848484",
"/ 	c #BEBEBE",
"( 	c #DFDFDF",
"_ 	c #404040",
": 	c #F7F7F7",
"< 	c #ACACAC",
"[ 	c #EAEAEA",
"} 	c #0D0D0D",
"| 	c #9F9F9F",
"1 	c #E3E3E3",
"2 	c #F9F9F9",
"3 	c #EBEBEB",
"4 	c #B6B6B6",
"5 	c #787878",
"6 	c #D0D0D0",
"7 	c #585858",
"8 	c #D1D1D1",
"9 	c #F6F6F6",
"0 	c #E7E7E7",
"a 	c #939393",
"b 	c #828282",
"c 	c #D7D7D7",
"d 	c #F5F5F5",
"e 	c #FDFDFD",
"f 	c #F3F3F3",
"g 	c #666666",
"h 	c #D6D6D6",
"i 	c #B4B4B4",
"j 	c #E1E1E1",
"k 	c #262626",
"l 	c #DCDCDC",
"m 	c #F2F2F2",
"n 	c #FEFEFE",
"o 	c #868686",
"p 	c #A9A9A9",
"q 	c #737373",
"r 	c #E8E8E8",
"s 	c #8E8E8E",
"t 	c #4B4B4B",
"u 	c #B8B8B8",
"v 	c #888888",
"w 	c #3D3D3D",
"x 	c #D4D4D4",
"y 	c #D8D8D8",
"z 	c #707070",
"A 	c #F4F4F4",
"B 	c #A3A3A3",
"C 	c #C3C3C3",
"D 	c #EEEEEE",
"E 	c #818181",
"F 	c #CFCFCF",
"G 	c #949494",
"H 	c #535353",
"I 	c #C8C8C8",
"J 	c #858585",
"K 	c #DBDBDB",
"L 	c #555555",
"M 	c #696969",
"N 	c #474747",
"O 	c #ECECEC",
"P 	c #7F7F7F",
"Q 	c #353535",
"R 	c #606060",
"S 	c #BBBBBB",
"T 	c #CBCBCB",
"U 	c #C0C0C0",
"V 	c #8C8C8C",
"W 	c #2A2A2A",
"X 	c #838383",
"Y 	c #878787",
"Z 	c #5D5D5D",
"` 	c #B9B9B9",
" .	c #727272",
"..	c #767676",
"+.	c #4D4D4D",
"@.	c #7C7C7C",
"#.	c #C4C4C4",
"$.	c #A4A4A4",
"%.	c #A1A1A1",
"&.	c #E4E4E4",
"*.	c #FAFAFA",
"=.	c #323232",
"-.	c #777777",
";.	c #E6E6E6",
">.	c #BDBDBD",
"                                                                                                                                                                                                                  ",
"        . + @ # $ % & * =                                                                                                                                                                                         ",
"      - ; > > > > > > > ,                                                                                                                                                                                         ",
"    ' > > ) ! ~ { ] ^ / (                                                                                                                                                                                         ",
"  _ : > /                                                                                                                                                                                                         ",
"  < > [ }                         | 1 2 $ 3 4 {       5 > 6 7 8 9 $ 0 a             b c d e f 6 g                                                                                                                 ",
"  h > i                         + > > > > > > j k     5 > l m > > > > n o         p n > > > > > # q                                                                                                               ",
"  r > s                       o > e 4 . t | : > u     5 > > r v w ] x > y       z e A B 7 { g C > 1                                                                                                               ",
"  D > E                       F > /         G > %     5 > # H       w $ A       I > J           K > L                                                                                                             ",
"  r > s                       [ > M           d > N   5 > K           O ;       0 > n n n n > > > > P                                                                                                             ",
"  h > i                       , > Q           r > ]   5 > 6           @ n       % > > > > > > > > > J                                                                                                             ",
"  < > @ }                     [ > M           d > N   5 > 6           @ n       @ > R                                                                                                                             ",
"  _ # > S                     6 > /         a > %     5 > 6           @ n       T > U                                                                                                                             ",
"    | > > y V N W R X / (     Y > e 4 Z ~ ' 9 > `     5 > 6           @ n        .e > I ..w +.@.` )                                                                                                               ",
"      p ; > > > > > > > ,       #.> > > > > > & W     5 > 6           @ n         $.e > > > > > > 3                                                                                                               ",
"        ] #.[ 2 ; % & * =         %.&.*.; 3 ` =.      5 > 6           @ n           -.6 , ; 9 ;.>.=                                                                                                               ",
"                                                                                                                                                                                                                  ",
"                                                                                                                                                                                                                  ",
"                                                                                                                                                                                                                  ",
"                                                                                                                                                                                                                  "};
