/* XPM */
static char * Cylinder_xpm[] = {
"105 20 117 2",
"  	c #000000",
". 	c #5F5F5F",
"+ 	c #C2C2C2",
"@ 	c #E9E9E9",
"# 	c #F8F8F8",
"$ 	c #FBFBFB",
"% 	c #F0F0F0",
"& 	c #E2E2E2",
"* 	c #B7B7B7",
"= 	c #656565",
"- 	c #5D5D5D",
"; 	c #FFFFFF",
"> 	c #D8D8D8",
", 	c #F6F6F6",
"' 	c #F1F1F1",
") 	c #A6A6A6",
"! 	c #FCFCFC",
"~ 	c #9E9E9E",
"{ 	c #D9D9D9",
"] 	c #8D8D8D",
"^ 	c #494949",
"/ 	c #2E2E2E",
"( 	c #626262",
"_ 	c #848484",
": 	c #BEBEBE",
"< 	c #DFDFDF",
"[ 	c #404040",
"} 	c #F7F7F7",
"| 	c #ACACAC",
"1 	c #EAEAEA",
"2 	c #0D0D0D",
"3 	c #7C7C7C",
"4 	c #DADADA",
"5 	c #EEEEEE",
"6 	c #474747",
"7 	c #787878",
"8 	c #D0D0D0",
"9 	c #585858",
"0 	c #D1D1D1",
"a 	c #E7E7E7",
"b 	c #939393",
"c 	c #161616",
"d 	c #B1B1B1",
"e 	c #EDEDED",
"f 	c #C0C0C0",
"g 	c #828282",
"h 	c #D7D7D7",
"i 	c #F5F5F5",
"j 	c #FDFDFD",
"k 	c #F3F3F3",
"l 	c #666666",
"m 	c #D3D3D3",
"n 	c #818181",
"o 	c #D6D6D6",
"p 	c #B4B4B4",
"q 	c #E6E6E6",
"r 	c #FEFEFE",
"s 	c #5C5C5C",
"t 	c #8A8A8A",
"u 	c #CCCCCC",
"v 	c #DCDCDC",
"w 	c #F2F2F2",
"x 	c #868686",
"y 	c #CBCBCB",
"z 	c #DBDBDB",
"A 	c #A9A9A9",
"B 	c #737373",
"C 	c #DDDDDD",
"D 	c #E8E8E8",
"E 	c #8E8E8E",
"F 	c #A4A4A4",
"G 	c #BBBBBB",
"H 	c #D4D4D4",
"I 	c #777777",
"J 	c #888888",
"K 	c #3D3D3D",
"L 	c #898989",
"M 	c #AEAEAE",
"N 	c #565656",
"O 	c #555555",
"P 	c #ADADAD",
"Q 	c #707070",
"R 	c #F4F4F4",
"S 	c #A3A3A3",
"T 	c #C3C3C3",
"U 	c #E3E3E3",
"V 	c #323232",
"W 	c #4D4D4D",
"X 	c #535353",
"Y 	c #B0B0B0",
"Z 	c #C8C8C8",
"` 	c #858585",
" .	c #929292",
"..	c #B2B2B2",
"+.	c #9F9F9F",
"@.	c #ECECEC",
"#.	c #7F7F7F",
"$.	c #E0E0E0",
"%.	c #262626",
"&.	c #878787",
"*.	c #BDBDBD",
"=.	c #606060",
"-.	c #959595",
";.	c #B8B8B8",
">.	c #AFAFAF",
",.	c #8C8C8C",
"'.	c #2A2A2A",
").	c #838383",
"!.	c #AAAAAA",
"~.	c #FAFAFA",
"{.	c #727272",
"].	c #767676",
"^.	c #B9B9B9",
"/.	c #EBEBEB",
"(.	c #C4C4C4",
"_.	c #F9F9F9",
":.	c #9B9B9B",
"                                                                                                                                                                                                                  ",
"        . + @ # $ % & * =                             - ; >       - ; >                                                 , '                                                                                       ",
"      ) ! ; ; ; ; ; ; ; '                             - ; >       - ; >                                                 , '                                                                                       ",
"    ~ ; ; { ] ^ / ( _ : <                             - ; >                                                             , '                                                                                       ",
"  [ } ; :                                             - ; >                                                             , '                                                                                       ",
"  | ; 1 2                   3 ; 4             5 $ 6   - ; >       - ; >       7 ; 8 9 0 , $ a b           c d e ! ' f / , '           g h i j k 8 l       7 ; 8 ( m , ; n                                         ",
"  o ; p                       q r s         t ; u     - ; >       - ; >       7 ; v w ; ; ; ; r x         y ; ; ; ; ; z } '         A r ; ; ; ; ; # B     7 ; C i ; ; ; n                                         ",
"  D ; E                       F ; G         H ; I     - ; >       - ; >       7 ; ; D J K ( H ; >       L ; $ M N O P $ ; '       Q j R S 9 / l T ; U     7 ; ; 1 t K                                             ",
"  5 ; n                       V , ' c     W ! U       - ; >       - ; >       7 ; # X       K $ R       8 ; p         Y ; '       Z ; `           z ; O   7 ; $ .                                                 ",
"  D ; E                         T ;  .    ..; +.      - ; >       - ; >       7 ; z           @.!       1 ; O         6 ; '       a ; r r r r ; ; ; ; #.  7 ; $.                                                  ",
"  o ; p                         l ; >     e R %.      - ; >       - ; >       7 ; 8           @ r       ' j             $ '       % ; ; ; ; ; ; ; ; ; `   7 ; 0                                                   ",
"  | ; @ 2                         v j 9 &.; *.        - ; >       - ; >       7 ; 8           @ r       1 ; O         6 ; '       @ ; =.                  7 ; 8                                                   ",
"  [ # ; G                         -.; ;.0 j s         - ; >       - ; >       7 ; 8           @ r       8 ; ..        >.; '       y ; f                   7 ; 8                                                   ",
"    +.; ; > ,.6 '.=.).: <         c ' w $ o           - ; >       - ; >       7 ; 8           @ r       t ; $ P O X !.~.; '       {.j ; Z ].K W 3 ^.{     7 ; 8                                                   ",
"      A ! ; ; ; ; ; ; ; '           * ; ; J           - ; >       - ; >       7 ; 8           @ r         u ; ; ; ; ; z } '         F j ; ; ; ; ; ; /.    7 ; 8                                                   ",
"        ( (.1 _.! % & * =           9 ; /.            - ; >       - ; >       7 ; 8           @ r         c ..5 ! w T V , '           I 8 ' ! , q *.=     7 ; 8                                                   ",
"                                    :.; P                                                                                                                                                                         ",
"                                2 B w $ 6                                                                                                                                                                         ",
"                              M ; ; ; +                                                                                                                                                                           ",
"                              M ; } y /                                                                                                                                                                           "};
