/* XPM */
static char * diameter_xpm[] = {
"105 20 123 2",
"  	c #000000",
". 	c #323232",
"+ 	c #FFFFFF",
"@ 	c #FCFCFC",
"# 	c #F5F5F5",
"$ 	c #E5E5E5",
"% 	c #C7C7C7",
"& 	c #818181",
"* 	c #5D5D5D",
"= 	c #D8D8D8",
"- 	c #DADADA",
"; 	c #4D4D4D",
"> 	c #696969",
", 	c #D4D4D4",
"' 	c #F8F8F8",
") 	c #1C1C1C",
"! 	c #4F4F4F",
"~ 	c #888888",
"{ 	c #2A2A2A",
"] 	c #7D7D7D",
"^ 	c #FAFAFA",
"/ 	c #ADADAD",
"( 	c #B4B4B4",
"_ 	c #E8E8E8",
": 	c #7A7A7A",
"< 	c #CACACA",
"[ 	c #EBEBEB",
"} 	c #FBFBFB",
"| 	c #E2E2E2",
"1 	c #9B9B9B",
"2 	c #787878",
"3 	c #D0D0D0",
"4 	c #636363",
"5 	c #D6D6D6",
"6 	c #F7F7F7",
"7 	c #F9F9F9",
"8 	c #DBDBDB",
"9 	c #555555",
"0 	c #CECECE",
"a 	c #E3E3E3",
"b 	c #828282",
"c 	c #D7D7D7",
"d 	c #FDFDFD",
"e 	c #F3F3F3",
"f 	c #666666",
"g 	c #B6B6B6",
"h 	c #A2A2A2",
"i 	c #626262",
"j 	c #D3D3D3",
"k 	c #F6F6F6",
"l 	c #5A5A5A",
"m 	c #FEFEFE",
"n 	c #404040",
"o 	c #B2B2B2",
"p 	c #DCDCDC",
"q 	c #F4F4F4",
"r 	c #F2F2F2",
"s 	c #606060",
"t 	c #F0F0F0",
"u 	c #454545",
"v 	c #A9A9A9",
"w 	c #737373",
"x 	c #DDDDDD",
"y 	c #6C6C6C",
"z 	c #A0A0A0",
"A 	c #2E2E2E",
"B 	c #565656",
"C 	c #A7A7A7",
"D 	c #474747",
"E 	c #3B3B3B",
"F 	c #757575",
"G 	c #E9E9E9",
"H 	c #EAEAEA",
"I 	c #898989",
"J 	c #3D3D3D",
"K 	c #707070",
"L 	c #A3A3A3",
"M 	c #585858",
"N 	c #C3C3C3",
"O 	c #8A8A8A",
"P 	c #F1F1F1",
"Q 	c #7C7C7C",
"R 	c #949494",
"S 	c #929292",
"T 	c #C8C8C8",
"U 	c #858585",
"V 	c #5F5F5F",
"W 	c #6A6A6A",
"X 	c #686868",
"Y 	c #CCCCCC",
"Z 	c #EFEFEF",
"` 	c #ABABAB",
" .	c #383838",
"..	c #E7E7E7",
"+.	c #7F7F7F",
"@.	c #E0E0E0",
"#.	c #717171",
"$.	c #B1B1B1",
"%.	c #222222",
"&.	c #D1D1D1",
"*.	c #B5B5B5",
"=.	c #777777",
"-.	c #161616",
";.	c #AAAAAA",
">.	c #4B4B4B",
",.	c #CBCBCB",
"'.	c #C0C0C0",
").	c #878787",
"!.	c #D2D2D2",
"~.	c #C6C6C6",
"{.	c #727272",
"].	c #767676",
"^.	c #B9B9B9",
"/.	c #D9D9D9",
"(.	c #838383",
"_.	c #A4A4A4",
":.	c #E6E6E6",
"<.	c #808080",
"[.	c #8E8E8E",
"}.	c #DEDEDE",
"|.	c #868686",
"1.	c #BDBDBD",
"2.	c #656565",
"                                                                                                                                                                                                                  ",
"                                                                                                                                                                                                                  ",
"                                                                                                                                                                                                                  ",
"    . + + + + @ # $ % &           * + =                                                                                                                                                                           ",
"    . + + + + + + + + + - ;       * + =                                                                                             > + ,                                                                         ",
"    . + '     ) ! ~ % @ + $ {                                                                                                       > + ,                                                                         ",
"    . + '             ] ^ + /                                                                                                       > + ,                                                                         ",
"    . + '               ( + _     * + =         : < [ } ' | 1         2 + 3 4 5 6 7 8 >   9 0 # } a :           b c # d e 3 f     g + + + + + + h       b c # d e 3 f       2 + 3 i j k + &                       ",
"    . + '               l + m n   * + =         + + + + + + + o       2 + p q + + + + r s t + + + + 6 u       v m + + + + + ' w   g + + + + + + h     v m + + + + + ' w     2 + x # + + + &                       ",
"    . + '                 6 + y   * + =         $ z > A B C 7 } D     2 + + $ & E F G + # H I J y a + (     K d q L M A f N + a     > + ,           K d q L M A f N + a     2 + + H O J                           ",
"    . + '                 P + Q   * + =                     g + R     2 + 6 ;       S + } s       : + j     T + U           8 + 9   > + ,           T + U           8 + 9   2 + } V                               ",
"    . + '                 6 + W   * + =         X Y Z } + + + + `     2 + 8         f + $          .+ |     ..+ m m m m + + + + +.  > + ,           ..+ m m m m + + + + +.  2 + @.                                ",
"    . + '               l + m J   * + =       #.' + + + + + + + $.    2 + 3         * + 8         %.+ $     t + + + + + + + + + U   > + ,           t + + + + + + + + + U   2 + &.                                ",
"    . + '               *.+ ..    * + =       3 + &.=.n -.  ` + $.    2 + 3         * + 8         %.+ $     G + s                   > + ,           G + s                   2 + 3                                 ",
"    . + '             ] ^ + ;.    * + =       a + >.        8 + $.    2 + 3         * + 8         %.+ $     ,.+ '.                  4 + =           ,.+ '.                  2 + 3                                 ",
"    . + '     ) ; ).% @ + a {     * + =       !.+ ~.l . F &.+ + $.    2 + 3         * + 8         %.+ $     {.d + T ].J ; Q ^./.     .+ q W -.      {.d + T ].J ; Q ^./.    2 + 3                                 ",
"    . + + + + + + + + + = >.      * + =       (.m + + + + m 3 + $.    2 + 3         * + 8         %.+ $       _.d + + + + + + [       @.+ + + + h     _.d + + + + + + [     2 + 3                                 ",
"    . + + + + @ k :.% <.          * + =         [.a 7 ' }.|.h + $.    2 + 3         * + 8         %.+ $         =.3 P @ k :.1.2.      i c 6 + + h       =.3 P @ k :.1.2.    2 + 3                                 ",
"                                                                                                                                                                                                                  ",
"                                                                                                                                                                                                                  "};
