/* XPM */
static char * dir_xpm[] = {
"60 70 110 2",
"  	c #000000",
". 	c #323232",
"+ 	c #FFFFFF",
"@ 	c #FCFCFC",
"# 	c #F5F5F5",
"$ 	c #E5E5E5",
"% 	c #C7C7C7",
"& 	c #818181",
"* 	c #5D5D5D",
"= 	c #D8D8D8",
"- 	c #ADADAD",
"; 	c #DBDBDB",
"> 	c #D9D9D9",
", 	c #AFAFAF",
"' 	c #DADADA",
") 	c #4D4D4D",
"! 	c #0D0D0D",
"~ 	c #E2E2E2",
"{ 	c #A1A1A1",
"] 	c #A3A3A3",
"^ 	c #F8F8F8",
"/ 	c #1C1C1C",
"( 	c #4F4F4F",
"_ 	c #888888",
": 	c #2A2A2A",
"< 	c #6C6C6C",
"[ 	c #FBFBFB",
"} 	c #F6F6F6",
"| 	c #515151",
"1 	c #585858",
"2 	c #F7F7F7",
"3 	c #FAFAFA",
"4 	c #666666",
"5 	c #7D7D7D",
"6 	c #B7B7B7",
"7 	c #D3D3D3",
"8 	c #AEAEAE",
"9 	c #B4B4B4",
"0 	c #E8E8E8",
"a 	c #787878",
"b 	c #D0D0D0",
"c 	c #626262",
"d 	c #222222",
"e 	c #949494",
"f 	c #E0E0E0",
"g 	c #5A5A5A",
"h 	c #FEFEFE",
"i 	c #404040",
"j 	c #DDDDDD",
"k 	c #797979",
"l 	c #FDFDFD",
"m 	c #F3F3F3",
"n 	c #656565",
"o 	c #EAEAEA",
"p 	c #8A8A8A",
"q 	c #3D3D3D",
"r 	c #C1C1C1",
"s 	c #F1F1F1",
"t 	c #7C7C7C",
"u 	c #5F5F5F",
"v 	c #A7A7A7",
"w 	c #898989",
"x 	c #6A6A6A",
"y 	c #5C5C5C",
"z 	c #EEEEEE",
"A 	c #D1D1D1",
"B 	c #DCDCDC",
"C 	c #A8A8A8",
"D 	c #CCCCCC",
"E 	c #C0C0C0",
"F 	c #B5B5B5",
"G 	c #E7E7E7",
"H 	c #454545",
"I 	c #AAAAAA",
"J 	c #F9F9F9",
"K 	c #979797",
"L 	c #878787",
"M 	c #E3E3E3",
"N 	c #D5D5D5",
"O 	c #4B4B4B",
"P 	c #535353",
"Q 	c #696969",
"R 	c #E6E6E6",
"S 	c #808080",
"T 	c #A4A4A4",
"U 	c #F0F0F0",
"V 	c #262626",
"W 	c #E9E9E9",
"X 	c #8D8D8D",
"Y 	c #BABABA",
"Z 	c #CDCDCD",
"` 	c #DFDFDF",
" .	c #717171",
"..	c #565656",
"+.	c #161616",
"@.	c #D7D7D7",
"#.	c #B1B1B1",
"$.	c #D2D2D2",
"%.	c #9C9C9C",
"&.	c #C8C8C8",
"*.	c #B9B9B9",
"=.	c #929292",
"-.	c #555555",
";.	c #EBEBEB",
">.	c #7F7F7F",
",.	c #A6A6A6",
"'.	c #F2F2F2",
").	c #EDEDED",
"!.	c #BCBCBC",
"~.	c #C5C5C5",
"                                                                                                                        ",
"                                                                                                                        ",
"                                                                                                                        ",
"              . + + + + @ # $ % &           * + =                                   - + ;             > + ,             ",
"              . + + + + + + + + + ' )       * + =                                   ! ~ + {         ] + ~ !             ",
"              . + ^     / ( _ % @ + $ :                                               < [ } |     1 2 3 4               ",
"              . + ^             5 3 + -                                                 6 + 7     ' + 8                 ",
"              . + ^               9 + 0     * + =       a + b c 7 } + &                 d 0 + e ] + f !                 ",
"              . + ^               g + h i   * + =       a + j # + + + &                   k l m 2 3 n                   ",
"              . + ^                 2 + <   * + =       a + + o p q                         r + + -                     ",
"              . + ^                 s + t   * + =       a + [ u                             v + + w                     ",
"              . + ^                 2 + x   * + =       a + f                             y ^ [ + z .                   ",
"              . + ^               g + h q   * + =       a + A                             B + C D + E                   ",
"              . + ^               F + G     * + =       a + b                           C + j   H m l k                 ",
"              . + ^             5 3 + I     * + =       a + b                         u J J u     K + 0 d               ",
"              . + ^     / ) L % @ + M :     * + =       a + b                         j + v         N + F               ",
"              . + + + + + + + + + = O       * + =       a + b                       I + j           P 2 [ Q             ",
"              . + + + + @ } R % S           * + =       a + b                     c J ^ *             T + f ! !         ",
"                                                                                                                        ",
"                                                                                                                        ",
"                                                                                                                        ",
"                                                                                                                        ",
"                                                                                                                        ",
"                                                                                                                        ",
"                                                                                                                        ",
"                                                                                                                        ",
"                                                                                                                        ",
"              . + + + + @ # $ % &           * + =                                 B + I             t h U q             ",
"              . + + + + + + + + + ' )       * + =                                 u J J u         V W + X               ",
"              . + ^     / ( _ % @ + $ :                                             I + B         Y + Z                 ",
"              . + ^             5 3 + -                                             ! ` + T      .@ m H                 ",
"              . + ^               9 + 0     * + =       a + b c 7 } + &               n 3 2 ..+.$ + e                   ",
"              . + ^               g + h i   * + =       a + j # + + + &                 , + @.#.+ $.                    ",
"              . + ^                 2 + <   * + =       a + + o p q                     ! M + l # )                     ",
"              . + ^                 s + t   * + =       a + [ u                           x @ + %.                      ",
"              . + ^                 2 + x   * + =       a + f                               s + ..                      ",
"              . + ^               g + h q   * + =       a + A                               s + ..                      ",
"              . + ^               F + G     * + =       a + b                               s + ..                      ",
"              . + ^             5 3 + I     * + =       a + b                               s + ..                      ",
"              . + ^     / ) L % @ + M :     * + =       a + b                               s + ..                      ",
"              . + + + + + + + + + = O       * + =       a + b                               s + ..                      ",
"              . + + + + @ } R % S           * + =       a + b                               s + ..                      ",
"                                                                                                                        ",
"                                                                                                                        ",
"                                                                                                                        ",
"                                                                                                                        ",
"                                                                                                                        ",
"                                                                                                                        ",
"                                                                                                                        ",
"                                                                                                                        ",
"                                                                                                                        ",
"              . + + + + @ # $ % &           * + =                                   s + + + + + + + + + + &.            ",
"              . + + + + + + + + + ' )       * + =                                   s + + + + + + + + + + *.            ",
"              . + ^     / ( _ % @ + $ :                                                             =.h M V             ",
"              . + ^             5 3 + -                                                           Q ^ m -.              ",
"              . + ^               9 + 0     * + =       a + b c 7 } + &                         q ;.@ >.                ",
"              . + ^               g + h i   * + =       a + j # + + + &                       ! @.+ ,.                  ",
"              . + ^                 2 + <   * + =       a + + o p q                           Y + &.                    ",
"              . + ^                 s + t   * + =       a + [ u                             e + ~ d                     ",
"              . + ^                 2 + x   * + =       a + f                             < ^ '.P                       ",
"              . + ^               g + h q   * + =       a + A                           i ).[ t                         ",
"              . + ^               F + G     * + =       a + b                         ! = + ]                           ",
"              . + ^             5 3 + I     * + =       a + b                         !.+ ~.                            ",
"              . + ^     / ) L % @ + M :     * + =       a + b                       K + f d                             ",
"              . + + + + + + + + + = O       * + =       a + b                     i J + + + + + + + + + + G             ",
"              . + + + + @ } R % S           * + =       a + b                     ..+ + + + + + + + + + + G             ",
"                                                                                                                        ",
"                                                                                                                        ",
"                                                                                                                        ",
"                                                                                                                        "};
