/* XPM */
static char * height_xpm[] = {
"105 20 99 2",
"  	c #000000",
". 	c #323232",
"+ 	c #FFFFFF",
"@ 	c #F8F8F8",
"# 	c #F3F3F3",
"$ 	c #4F4F4F",
"% 	c #5D5D5D",
"& 	c #D8D8D8",
"* 	c #787878",
"= 	c #D0D0D0",
"- 	c #696969",
"; 	c #D4D4D4",
"> 	c #828282",
", 	c #D7D7D7",
"' 	c #F5F5F5",
") 	c #FDFDFD",
"! 	c #666666",
"~ 	c #1C1C1C",
"{ 	c #B3B3B3",
"] 	c #EDEDED",
"^ 	c #FCFCFC",
"/ 	c #F1F1F1",
"( 	c #C0C0C0",
"_ 	c #2E2E2E",
": 	c #F6F6F6",
"< 	c #585858",
"[ 	c #D1D1D1",
"} 	c #FBFBFB",
"| 	c #E7E7E7",
"1 	c #939393",
"2 	c #B6B6B6",
"3 	c #A2A2A2",
"4 	c #A9A9A9",
"5 	c #FEFEFE",
"6 	c #737373",
"7 	c #CECECE",
"8 	c #DBDBDB",
"9 	c #F7F7F7",
"0 	c #DCDCDC",
"a 	c #F2F2F2",
"b 	c #868686",
"c 	c #707070",
"d 	c #F4F4F4",
"e 	c #A3A3A3",
"f 	c #C3C3C3",
"g 	c #E3E3E3",
"h 	c #8C8C8C",
"i 	c #FAFAFA",
"j 	c #ACACAC",
"k 	c #565656",
"l 	c #535353",
"m 	c #E8E8E8",
"n 	c #888888",
"o 	c #3D3D3D",
"p 	c #626262",
"q 	c #C8C8C8",
"r 	c #858585",
"s 	c #555555",
"t 	c #B0B0B0",
"u 	c #ADADAD",
"v 	c #7F7F7F",
"w 	c #EAEAEA",
"x 	c #454545",
"y 	c #ECECEC",
"z 	c #F0F0F0",
"A 	c #E9E9E9",
"B 	c #606060",
"C 	c #CBCBCB",
"D 	c #AFAFAF",
"E 	c #636363",
"F 	c #727272",
"G 	c #767676",
"H 	c #4D4D4D",
"I 	c #7C7C7C",
"J 	c #B9B9B9",
"K 	c #D9D9D9",
"L 	c #8D8D8D",
"M 	c #AAAAAA",
"N 	c #515151",
"O 	c #A7A7A7",
"P 	c #F9F9F9",
"Q 	c #383838",
"R 	c #6A6A6A",
"S 	c #161616",
"T 	c #A4A4A4",
"U 	c #EBEBEB",
"V 	c #EEEEEE",
"W 	c #E0E0E0",
"X 	c #777777",
"Y 	c #E6E6E6",
"Z 	c #BDBDBD",
"` 	c #656565",
" .	c #B4B4B4",
"..	c #C1C1C1",
"+.	c #CCCCCC",
"@.	c #6E6E6E",
"#.	c #353535",
"$.	c #8B8B8B",
"%.	c #C4C4C4",
"                                                                                                                                                                                                                  ",
"        . + @               # + $                             % + &                                 * + =                                                                                                         ",
"        . + @               # + $                             % + &                                 * + =                     - + ;                                                                               ",
"        . + @               # + $                                                                   * + =                     - + ;                                                                               ",
"        . + @               # + $                                                                   * + =                     - + ;                                                                               ",
"        . + @               # + $         > , ' ) # = !       % + &         ~ { ] ^ / ( _ : /       * + = < [ : } | 1       2 + + + + + + 3                                                                       ",
"        . + @               # + $       4 5 + + + + + @ 6     % + &         7 + + + + + 8 9 /       * + 0 a + + + + 5 b     2 + + + + + + 3                                                                       ",
"        . + + + + + + + + + + + $     c ) d e < _ ! f + g     % + &       h + i j k l 4 i + /       * + + m n o p ; + &       - + ;                                                                               ",
"        . + + + + + + + + + + + $     q + r           8 + s   % + &       = + t         u + /       * + @ l       o } d       - + ;                                                                               ",
"        . + @               # + $     | + 5 5 5 5 + + + + v   % + &       w + l         x + /       * + 8           y ^       - + ;                                                                               ",
"        . + @               # + $     z + + + + + + + + + r   % + &       / )             } /       * + =           A 5       - + ;                                                                               ",
"        . + @               # + $     A + B                   % + &       w + l         x + /       * + =           A 5       - + ;                                                                               ",
"        . + @               # + $     C + (                   % + &       [ + D         j + /       * + =           A 5       E + &                                                                               ",
"        . + @               # + $     F ) + q G o H I J K     % + &       L + i M l N O P + /       * + =           A 5       Q + d R S                                                                           ",
"        . + @               # + $       T ) + + + + + + U     % + &         = + + + + + 8 @ V       * + =           A 5         W + + + + 3                                                                       ",
"        . + @               # + $         X = / ^ : Y Z `     % + &         ~  .V ^ a ..N + Y       * + =           A 5         p , 9 + + 3                                                                       ",
"                                                                                        O + +.                                                                                                                    ",
"                                                                            J t @.#.E D P + $.                                                                                                                    ",
"                                                                            q + + + + + + =                                                                                                                       ",
"                                                                            k %.U i i Y j S                                                                                                                       "};
