/* XPM */
static char * light_xpm[] = {
"105 20 74 1",
" 	c #000000",
".	c #323232",
"+	c #FFFFFF",
"@	c #F8F8F8",
"#	c #5D5D5D",
"$	c #D8D8D8",
"%	c #787878",
"&	c #D0D0D0",
"*	c #696969",
"=	c #D4D4D4",
"-	c #1C1C1C",
";	c #B3B3B3",
">	c #EDEDED",
",	c #FCFCFC",
"'	c #F1F1F1",
")	c #C0C0C0",
"!	c #2E2E2E",
"~	c #F6F6F6",
"{	c #585858",
"]	c #D1D1D1",
"^	c #FBFBFB",
"/	c #E7E7E7",
"(	c #939393",
"_	c #B6B6B6",
":	c #A2A2A2",
"<	c #CECECE",
"[	c #DBDBDB",
"}	c #F7F7F7",
"|	c #DCDCDC",
"1	c #F2F2F2",
"2	c #FEFEFE",
"3	c #868686",
"4	c #8C8C8C",
"5	c #FAFAFA",
"6	c #ACACAC",
"7	c #565656",
"8	c #535353",
"9	c #A9A9A9",
"0	c #E8E8E8",
"a	c #888888",
"b	c #3D3D3D",
"c	c #626262",
"d	c #B0B0B0",
"e	c #ADADAD",
"f	c #F4F4F4",
"g	c #EAEAEA",
"h	c #454545",
"i	c #ECECEC",
"j	c #FDFDFD",
"k	c #E9E9E9",
"l	c #AFAFAF",
"m	c #636363",
"n	c #8D8D8D",
"o	c #AAAAAA",
"p	c #515151",
"q	c #A7A7A7",
"r	c #F9F9F9",
"s	c #383838",
"t	c #6A6A6A",
"u	c #161616",
"v	c #EEEEEE",
"w	c #E0E0E0",
"x	c #B4B4B4",
"y	c #C1C1C1",
"z	c #E6E6E6",
"A	c #D7D7D7",
"B	c #CCCCCC",
"C	c #B9B9B9",
"D	c #6E6E6E",
"E	c #353535",
"F	c #8B8B8B",
"G	c #C8C8C8",
"H	c #C4C4C4",
"I	c #EBEBEB",
"                                                                                                         ",
" .+@        #+$                %+&                                                                       ",
" .+@        #+$                %+&          *+=                                                          ",
" .+@                           %+&          *+=                                                          ",
" .+@                           %+&          *+=                                                          ",
" .+@        #+$    -;>,')!~'   %+&{]~^/(   _++++++:                                                      ",
" .+@        #+$    <+++++[}'   %+|1++++23  _++++++:                                                      ",
" .+@        #+$   4+567895+'   %++0abc=+$   *+=                                                          ",
" .+@        #+$   &+d    e+'   %+@8   b^f   *+=                                                          ",
" .+@        #+$   g+8    h+'   %+[     i,   *+=                                                          ",
" .+@        #+$   'j      ^'   %+&     k2   *+=                                                          ",
" .+@        #+$   g+8    h+'   %+&     k2   *+=                                                          ",
" .+@        #+$   ]+l    6+'   %+&     k2   m+$                                                          ",
" .+@        #+$   n+5o8pqr+'   %+&     k2   s+ftu                                                        ",
" .+++++++++.#+$    &+++++[@v   %+&     k2    w++++:                                                      ",
" .+++++++++.#+$    -xv,1yp+z   %+&     k2    cA}++:                                                      ",
"                         q+B                                                                             ",
"                   CdDEmlr+F                                                                             ",
"                   G++++++&                                                                              ",
"                   7HI55z6u                                                                              "};
