/* XPM */
static char * minus_xpm[] = {
"16 16 5 1",
" 	c #1D1D1D",
".	c #FFFFFF",
"+	c #1E1E1E",
"@	c #FAFAFA",
"#	c #1F1F1F",
"                ",
"                ",
"                ",
"                ",
"                ",
"                ",
"                ",
"    ........    ",
"   +.......@    ",
"                ",
" +              ",
"                ",
" +              ",
" #              ",
"                ",
"                "};
