/* XPM */
static char * Plane_xpm[] = {
"105 20 102 2",
"  	c #000000",
". 	c #323232",
"+ 	c #FFFFFF",
"@ 	c #FEFEFE",
"# 	c #F6F6F6",
"$ 	c #DBDBDB",
"% 	c #8F8F8F",
"& 	c #5D5D5D",
"* 	c #D8D8D8",
"= 	c #ADADAD",
"- 	c #F8F8F8",
"; 	c #262626",
"> 	c #727272",
", 	c #FAFAFA",
"' 	c #424242",
") 	c #2E2E2E",
"! 	c #F4F4F4",
"~ 	c #909090",
"{ 	c #E0E0E0",
"] 	c #A1A1A1",
"^ 	c #7A7A7A",
"/ 	c #CACACA",
"( 	c #EBEBEB",
"_ 	c #FBFBFB",
": 	c #E2E2E2",
"< 	c #9B9B9B",
"[ 	c #787878",
"} 	c #D0D0D0",
"| 	c #585858",
"1 	c #D1D1D1",
"2 	c #E7E7E7",
"3 	c #939393",
"4 	c #828282",
"5 	c #D7D7D7",
"6 	c #F5F5F5",
"7 	c #FDFDFD",
"8 	c #F3F3F3",
"9 	c #666666",
"0 	c #B2B2B2",
"a 	c #DCDCDC",
"b 	c #F2F2F2",
"c 	c #868686",
"d 	c #A9A9A9",
"e 	c #737373",
"f 	c #717171",
"g 	c #E5E5E5",
"h 	c #A0A0A0",
"i 	c #696969",
"j 	c #565656",
"k 	c #A7A7A7",
"l 	c #F9F9F9",
"m 	c #474747",
"n 	c #E8E8E8",
"o 	c #888888",
"p 	c #3D3D3D",
"q 	c #626262",
"r 	c #D4D4D4",
"s 	c #707070",
"t 	c #A3A3A3",
"u 	c #C3C3C3",
"v 	c #E3E3E3",
"w 	c #B6B6B6",
"x 	c #949494",
"y 	c #535353",
"z 	c #C8C8C8",
"A 	c #858585",
"B 	c #555555",
"C 	c #686868",
"D 	c #CCCCCC",
"E 	c #EFEFEF",
"F 	c #ABABAB",
"G 	c #ECECEC",
"H 	c #FCFCFC",
"I 	c #7F7F7F",
"J 	c #B1B1B1",
"K 	c #E9E9E9",
"L 	c #F0F0F0",
"M 	c #777777",
"N 	c #404040",
"O 	c #161616",
"P 	c #606060",
"Q 	c #4B4B4B",
"R 	c #CBCBCB",
"S 	c #C0C0C0",
"T 	c #D2D2D2",
"U 	c #C6C6C6",
"V 	c #5A5A5A",
"W 	c #757575",
"X 	c #767676",
"Y 	c #4D4D4D",
"Z 	c #7C7C7C",
"` 	c #B9B9B9",
" .	c #D9D9D9",
"..	c #838383",
"+.	c #A4A4A4",
"@.	c #8E8E8E",
"#.	c #DEDEDE",
"$.	c #A2A2A2",
"%.	c #F1F1F1",
"&.	c #E6E6E6",
"*.	c #BDBDBD",
"=.	c #656565",
"                                                                                                                                                                                                                  ",
"  . + + + + @ # $ %       & + *                                                                                                                                                                                   ",
"  . + + + + + + + + =     & + *                                                                                                                                                                                   ",
"  . + -     ; > * + , '   & + *                                                                                                                                                                                   ",
"  . + -         ) ! + ~   & + *                                                                                                                                                                                   ",
"  . + -           { + ]   & + *         ^ / ( _ - : <         [ + } | 1 # _ 2 3             4 5 6 7 8 } 9                                                                                                         ",
"  . + -         ) ! + ~   & + *         + + + + + + + 0       [ + a b + + + + @ c         d @ + + + + + - e                                                                                                       ",
"  . + -     ; f 5 + , '   & + *         g h i ) j k l _ m     [ + + n o p q r + *       s 7 ! t | ) 9 u + v                                                                                                       ",
"  . + + + + + + + + =     & + *                     w + x     [ + - y       p _ !       z + A           $ + B                                                                                                     ",
"  . + + + + @ # a ~       & + *         C D E _ + + + + F     [ + $           G H       2 + @ @ @ @ + + + + I                                                                                                     ",
"  . + -                   & + *       f - + + + + + + + J     [ + }           K @       L + + + + + + + + + A                                                                                                     ",
"  . + -                   & + *       } + 1 M N O   F + J     [ + }           K @       K + P                                                                                                                     ",
"  . + -                   & + *       v + Q         $ + J     [ + }           K @       R + S                                                                                                                     ",
"  . + -                   & + *       T + U V . W 1 + + J     [ + }           K @       > 7 + z X p Y Z `  .                                                                                                      ",
"  . + -                   & + *       ..@ + + + + @ } + J     [ + }           K @         +.7 + + + + + + (                                                                                                       ",
"  . + -                   & + *         @.v l - #.c $.+ J     [ + }           K @           M } %.H # &.*.=.                                                                                                      ",
"                                                                                                                                                                                                                  ",
"                                                                                                                                                                                                                  ",
"                                                                                                                                                                                                                  ",
"                                                                                                                                                                                                                  "};
