/* XPM */
static char * plus_xpm[] = {
"16 16 7 1",
" 	c #1D1D1D",
".	c #FEFEFE",
"+	c #FFFFFF",
"@	c #1E1E1E",
"#	c #FAFAFA",
"$	c #FBFBFB",
"%	c #1F1F1F",
"                ",
"                ",
"                ",
"                ",
"       .+       ",
"       ++       ",
"       ++       ",
"    ++++++++    ",
"   @+++++++#    ",
"       +$       ",
" @     ++       ",
"       ++       ",
" @              ",
" %              ",
"                ",
"                "};
