/* XPM */
static char * pos_xpm[] = {
"60 70 130 2",
"  	c #000000",
". 	c #323232",
"+ 	c #FFFFFF",
"@ 	c #FEFEFE",
"# 	c #F6F6F6",
"$ 	c #DBDBDB",
"% 	c #8F8F8F",
"& 	c #ADADAD",
"* 	c #D9D9D9",
"= 	c #AFAFAF",
"- 	c #0D0D0D",
"; 	c #E2E2E2",
"> 	c #A1A1A1",
", 	c #A3A3A3",
"' 	c #F8F8F8",
") 	c #262626",
"! 	c #727272",
"~ 	c #D8D8D8",
"{ 	c #FAFAFA",
"] 	c #424242",
"^ 	c #6C6C6C",
"/ 	c #FBFBFB",
"( 	c #515151",
"_ 	c #585858",
": 	c #F7F7F7",
"< 	c #666666",
"[ 	c #2E2E2E",
"} 	c #F4F4F4",
"| 	c #909090",
"1 	c #B7B7B7",
"2 	c #D3D3D3",
"3 	c #DADADA",
"4 	c #AEAEAE",
"5 	c #E0E0E0",
"6 	c #9F9F9F",
"7 	c #E3E3E3",
"8 	c #F9F9F9",
"9 	c #EBEBEB",
"0 	c #B6B6B6",
"a 	c #929292",
"b 	c #DEDEDE",
"c 	c #EDEDED",
"d 	c #CECECE",
"e 	c #222222",
"f 	c #E8E8E8",
"g 	c #949494",
"h 	c #C2C2C2",
"i 	c #E1E1E1",
"j 	c #EFEFEF",
"k 	c #797979",
"l 	c #FDFDFD",
"m 	c #F3F3F3",
"n 	c #656565",
"o 	c #717171",
"p 	c #D7D7D7",
"q 	c #868686",
"r 	c #5F5F5F",
"s 	c #4B4B4B",
"t 	c #B8B8B8",
"u 	c #E4E4E4",
"v 	c #B9B9B9",
"w 	c #5C5C5C",
"x 	c #686868",
"y 	c #A4A4A4",
"z 	c #C1C1C1",
"A 	c #CFCFCF",
"B 	c #BEBEBE",
"C 	c #F0F0F0",
"D 	c #A7A7A7",
"E 	c #898989",
"F 	c #DCDCDC",
"G 	c #EAEAEA",
"H 	c #696969",
"I 	c #F5F5F5",
"J 	c #474747",
"K 	c #B0B0B0",
"L 	c #959595",
"M 	c #4D4D4D",
"N 	c #EEEEEE",
"O 	c #F1F1F1",
"P 	c #353535",
"Q 	c #626262",
"R 	c #E5E5E5",
"S 	c #C4C4C4",
"T 	c #565656",
"U 	c #A8A8A8",
"V 	c #CCCCCC",
"W 	c #C0C0C0",
"X 	c #404040",
"Y 	c #BBBBBB",
"Z 	c #DDDDDD",
"` 	c #454545",
" .	c #D0D0D0",
"..	c #939393",
"+.	c #979797",
"@.	c #878787",
"#.	c #5D5D5D",
"$.	c #494949",
"%.	c #9E9E9E",
"&.	c #B4B4B4",
"*.	c #787878",
"=.	c #383838",
"-.	c #818181",
";.	c #D5D5D5",
">.	c #B5B5B5",
",.	c #2A2A2A",
"'.	c #AAAAAA",
").	c #535353",
"!.	c #FCFCFC",
"~.	c #707070",
"{.	c #BCBCBC",
"].	c #7C7C7C",
"^.	c #3D3D3D",
"/.	c #E9E9E9",
"(.	c #8D8D8D",
"_.	c #BABABA",
":.	c #CDCDCD",
"<.	c #DFDFDF",
"[.	c #161616",
"}.	c #B1B1B1",
"|.	c #D2D2D2",
"1.	c #6A6A6A",
"2.	c #9C9C9C",
"3.	c #C8C8C8",
"4.	c #555555",
"5.	c #7F7F7F",
"6.	c #A6A6A6",
"7.	c #F2F2F2",
"8.	c #C5C5C5",
"9.	c #E7E7E7",
"                                                                                                                        ",
"                                                                                                                        ",
"                                                                                                                        ",
"        . + + + + @ # $ %                                                             & + $             * + =           ",
"        . + + + + + + + + &                                                           - ; + >         , + ; -           ",
"        . + '     ) ! ~ + { ]                                                           ^ / # (     _ : { <             ",
"        . + '         [ } + |                                                             1 + 2     3 + 4               ",
"        . + '           5 + >     6 7 8 / 9 0 [         a b } / c d !                     e f + g , + 5 -               ",
"        . + '         [ } + |   h + + + + + + i )     , + + + + + + j                       k l m : { n                 ",
"        . + '     ) o p + { ] q + l 0 r s 6 : + t     u + v w [ x y ~                         z + + &                   ",
"        . + + + + + + + + &   A + B         g + C     u / -                                   D + + E                   ",
"        . + + + + @ # F |     G + H           I + J   K + ~ L M                             w ' / + N .                 ",
"        . + '                 O + P           f + Q   - , R @ + j S T                       F + U V + W                 ",
"        . + '                 G + H           I + J         X q Y ' O J                   U + Z   ` m l k               ",
"        . + '                  .+ B         ..+ C                 t + 6                 r 8 8 r     +.+ f e             ",
"        . + '                 @.+ l 0 #.$.%.# + v     ; &.*.] =.-.G + >                 Z + D         ;.+ >.            ",
"        . + '                   S + + + + + + ; ,.    # + + + + + + j X               '.+ Z           ).: / H           ",
"        . + '                     > u { !.9 v .       ~.h f 8 ' 9 {.M               Q 8 ' #.            y + 5 -         ",
"                                                                                                                        ",
"                                                                                                                        ",
"                                                                                                                        ",
"                                                                                                                        ",
"                                                                                                                        ",
"                                                                                                                        ",
"                                                                                                                        ",
"                                                                                                                        ",
"                                                                                                                        ",
"        . + + + + @ # $ %                                                           F + '.            ].@ C ^.          ",
"        . + + + + + + + + &                                                         r 8 8 r         ) /.+ (.            ",
"        . + '     ) ! ~ + { ]                                                         '.+ F         _.+ :.              ",
"        . + '         [ } + |                                                         - <.+ y     o !.m `               ",
"        . + '           5 + >     6 7 8 / 9 0 [         a b } / c d !                   n { : T [.R + g                 ",
"        . + '         [ } + |   h + + + + + + i )     , + + + + + + j                     = + p }.+ |.                  ",
"        . + '     ) o p + { ] q + l 0 r s 6 : + t     u + v w [ x y ~                     - 7 + l I M                   ",
"        . + + + + + + + + &   A + B         g + C     u / -                                 1.!.+ 2.                    ",
"        . + + + + @ # F |     G + H           I + J   K + ~ L M                               O + T                     ",
"        . + '                 O + P           f + Q   - , R @ + j S T                         O + T                     ",
"        . + '                 G + H           I + J         X q Y ' O J                       O + T                     ",
"        . + '                  .+ B         ..+ C                 t + 6                       O + T                     ",
"        . + '                 @.+ l 0 #.$.%.# + v     ; &.*.] =.-.G + >                       O + T                     ",
"        . + '                   S + + + + + + ; ,.    # + + + + + + j X                       O + T                     ",
"        . + '                     > u { !.9 v .       ~.h f 8 ' 9 {.M                         O + T                     ",
"                                                                                                                        ",
"                                                                                                                        ",
"                                                                                                                        ",
"                                                                                                                        ",
"                                                                                                                        ",
"                                                                                                                        ",
"                                                                                                                        ",
"                                                                                                                        ",
"                                                                                                                        ",
"        . + + + + @ # $ %                                                             O + + + + + + + + + + 3.          ",
"        . + + + + + + + + &                                                           O + + + + + + + + + + v           ",
"        . + '     ) ! ~ + { ]                                                                         a @ 7 )           ",
"        . + '         [ } + |                                                                       H ' m 4.            ",
"        . + '           5 + >     6 7 8 / 9 0 [         a b } / c d !                             ^.9 !.5.              ",
"        . + '         [ } + |   h + + + + + + i )     , + + + + + + j                           - p + 6.                ",
"        . + '     ) o p + { ] q + l 0 r s 6 : + t     u + v w [ x y ~                           _.+ 3.                  ",
"        . + + + + + + + + &   A + B         g + C     u / -                                   g + ; e                   ",
"        . + + + + @ # F |     G + H           I + J   K + ~ L M                             ^ ' 7.).                    ",
"        . + '                 O + P           f + Q   - , R @ + j S T                     X c / ].                      ",
"        . + '                 G + H           I + J         X q Y ' O J                 - ~ + ,                         ",
"        . + '                  .+ B         ..+ C                 t + 6                 {.+ 8.                          ",
"        . + '                 @.+ l 0 #.$.%.# + v     ; &.*.] =.-.G + >               +.+ 5 e                           ",
"        . + '                   S + + + + + + ; ,.    # + + + + + + j X             X 8 + + + + + + + + + + 9.          ",
"        . + '                     > u { !.9 v .       ~.h f 8 ' 9 {.M               T + + + + + + + + + + + 9.          ",
"                                                                                                                        ",
"                                                                                                                        ",
"                                                                                                                        ",
"                                                                                                                        "};
