/* XPM */
static char * ratio_xpm[] = {
"105 20 104 2",
"  	c #000000",
". 	c #323232",
"+ 	c #FFFFFF",
"@ 	c #FEFEFE",
"# 	c #F7F7F7",
"$ 	c #E2E2E2",
"% 	c #A9A9A9",
"& 	c #161616",
"* 	c #5D5D5D",
"= 	c #D8D8D8",
"- 	c #CECECE",
"; 	c #696969",
"> 	c #D4D4D4",
", 	c #F8F8F8",
"' 	c #222222",
") 	c #636363",
"! 	c #C3C3C3",
"~ 	c #6D6D6D",
"{ 	c #E9E9E9",
"] 	c #9D9D9D",
"^ 	c #939393",
"/ 	c #7A7A7A",
"( 	c #CACACA",
"_ 	c #EBEBEB",
": 	c #FBFBFB",
"< 	c #9B9B9B",
"[ 	c #B6B6B6",
"} 	c #A2A2A2",
"| 	c #9F9F9F",
"1 	c #E3E3E3",
"2 	c #F9F9F9",
"3 	c #2E2E2E",
"4 	c #626262",
"5 	c #454545",
"6 	c #B2B2B2",
"7 	c #C2C2C2",
"8 	c #E1E1E1",
"9 	c #262626",
"0 	c #F3F3F3",
"a 	c #8A8A8A",
"b 	c #E5E5E5",
"c 	c #A0A0A0",
"d 	c #565656",
"e 	c #A7A7A7",
"f 	c #474747",
"g 	c #868686",
"h 	c #FDFDFD",
"i 	c #5F5F5F",
"j 	c #4B4B4B",
"k 	c #B8B8B8",
"l 	c #AAAAAA",
"m 	c #949494",
"n 	c #CFCFCF",
"o 	c #BEBEBE",
"p 	c #F0F0F0",
"q 	c #424242",
"r 	c #8E8E8E",
"s 	c #686868",
"t 	c #CCCCCC",
"u 	c #EFEFEF",
"v 	c #ABABAB",
"w 	c #EAEAEA",
"x 	c #F5F5F5",
"y 	c #969696",
"z 	c #ECECEC",
"A 	c #717171",
"B 	c #B1B1B1",
"C 	c #F1F1F1",
"D 	c #353535",
"E 	c #E8E8E8",
"F 	c #E4E4E4",
"G 	c #9A9A9A",
"H 	c #D0D0D0",
"I 	c #D1D1D1",
"J 	c #777777",
"K 	c #404040",
"L 	c #9C9C9C",
"M 	c #DBDBDB",
"N 	c #1C1C1C",
"O 	c #808080",
"P 	c #D2D2D2",
"Q 	c #C6C6C6",
"R 	c #5A5A5A",
"S 	c #757575",
"T 	c #383838",
"U 	c #F4F4F4",
"V 	c #6A6A6A",
"W 	c #878787",
"X 	c #494949",
"Y 	c #9E9E9E",
"Z 	c #F6F6F6",
"` 	c #B9B9B9",
" .	c #B4B4B4",
"..	c #D5D5D5",
"+.	c #838383",
"@.	c #E0E0E0",
"#.	c #C4C4C4",
"$.	c #2A2A2A",
"%.	c #FAFAFA",
"&.	c #606060",
"*.	c #DEDEDE",
"=.	c #D7D7D7",
"-.	c #A1A1A1",
";.	c #FCFCFC",
"                                                                                                                                                                                                                  ",
"                                                                                                                                                                                                                  ",
"      . + + + + @ # $ % &                                               * + =                                                                                                                                     ",
"      . + + + + + + + + -                               ; + >           * + =                                                                                                                                     ",
"      . + ,     ' ) ! + + ~                             ; + >                                                                                                                                                     ",
"      . + ,           { + ]                             ; + >                                                                                                                                                     ",
"      . + ,           { + ^       / ( _ : , $ <       [ + + + + + + }   * + =           | 1 2 : _ [ 3                                                                                                             ",
"      . + ,     ' 4 ! + , 5       + + + + + + + 6     [ + + + + + + }   * + =         7 + + + + + + 8 9                                                                                                           ",
"      . + + + + + + + 0 a         b c ; 3 d e 2 : f     ; + >           * + =       g + h [ i j | # + k                                                                                                           ",
"      . + + + + + + @ l                       [ + m     ; + >           * + =       n + o         m + p                                                                                                           ",
"      . + ,     q < # + r         s t u : + + + + v     ; + >           * + =       w + ;           x + f                                                                                                         ",
"      . + ,         y + z &     A , + + + + + + + B     ; + >           * + =       C + D           E + 4                                                                                                         ",
"      . + ,           F + G     H + I J K &   v + B     ; + >           * + =       w + ;           x + f                                                                                                         ",
"      . + ,           L + F     1 + j         M + B     ) + =           * + =       H + o         ^ + p                                                                                                           ",
"      . + ,           N C + O   P + Q R . S I + + B     T + U V &       * + =       W + h [ * X Y Z + `                                                                                                           ",
"      . + ,              .+ ..  +.@ + + + + @ H + B       @.+ + + + }   * + =         #.+ + + + + + $ $.                                                                                                          ",
"      . + ,             f %.@ &.  r 1 2 , *.g } + B       4 =.# + + }   * + =           -.F %.;._ ` .                                                                                                             ",
"                                                                                                                                                                                                                  ",
"                                                                                                                                                                                                                  ",
"                                                                                                                                                                                                                  "};
