/* XPM */
static char * rgb_xpm[] = {
"20 70 98 2",
"  	c #000000",
". 	c #323232",
"+ 	c #FFFFFF",
"@ 	c #FEFEFE",
"# 	c #F7F7F7",
"$ 	c #E2E2E2",
"% 	c #A9A9A9",
"& 	c #161616",
"* 	c #CECECE",
"= 	c #F8F8F8",
"- 	c #222222",
"; 	c #636363",
"> 	c #C3C3C3",
", 	c #6D6D6D",
"' 	c #E9E9E9",
") 	c #9D9D9D",
"! 	c #939393",
"~ 	c #626262",
"{ 	c #454545",
"] 	c #F3F3F3",
"^ 	c #8A8A8A",
"/ 	c #AAAAAA",
"( 	c #424242",
"_ 	c #9B9B9B",
": 	c #8E8E8E",
"< 	c #969696",
"[ 	c #ECECEC",
"} 	c #E4E4E4",
"| 	c #9A9A9A",
"1 	c #9C9C9C",
"2 	c #1C1C1C",
"3 	c #F1F1F1",
"4 	c #808080",
"5 	c #B4B4B4",
"6 	c #D5D5D5",
"7 	c #474747",
"8 	c #FAFAFA",
"9 	c #606060",
"0 	c #5C5C5C",
"a 	c #C0C0C0",
"b 	c #E7E7E7",
"c 	c #FCFCFC",
"d 	c #E8E8E8",
"e 	c #CFCFCF",
"f 	c #979797",
"g 	c #353535",
"h 	c #A7A7A7",
"i 	c #B9B9B9",
"j 	c #A1A1A1",
"k 	c #DBDBDB",
"l 	c #929292",
"m 	c #515151",
"n 	c #262626",
"o 	c #555555",
"p 	c #787878",
"q 	c #A3A3A3",
"r 	c #D8D8D8",
"s 	c #B2B2B2",
"t 	c #BBBBBB",
"u 	c #ADADAD",
"v 	c #0D0D0D",
"w 	c #D6D6D6",
"x 	c #EFEFEF",
"y 	c #818181",
"z 	c #989898",
"A 	c #D7D7D7",
"B 	c #565656",
"C 	c #F9F9F9",
"D 	c #D9D9D9",
"E 	c #919191",
"F 	c #4F4F4F",
"G 	c #4D4D4D",
"H 	c #7C7C7C",
"I 	c #C2C2C2",
"J 	c #EEEEEE",
"K 	c #8B8B8B",
"L 	c #5F5F5F",
"M 	c #C1C1C1",
"N 	c #FDFDFD",
"O 	c #F5F5F5",
"P 	c #DDDDDD",
"Q 	c #ACACAC",
"R 	c #C6C6C6",
"S 	c #535353",
"T 	c #494949",
"U 	c #BDBDBD",
"V 	c #CBCBCB",
"W 	c #909090",
"X 	c #F2F2F2",
"Y 	c #EBEBEB",
"Z 	c #FBFBFB",
"` 	c #C8C8C8",
" .	c #3B3B3B",
"..	c #7D7D7D",
"+.	c #8D8D8D",
"@.	c #868686",
"#.	c #DCDCDC",
"$.	c #828282",
"                                        ",
"                                        ",
"                                        ",
"                                        ",
"        . + + + + @ # $ % &             ",
"        . + + + + + + + + *             ",
"        . + =     - ; > + + ,           ",
"        . + =           ' + )           ",
"        . + =           ' + !           ",
"        . + =     - ~ > + = {           ",
"        . + + + + + + + ] ^             ",
"        . + + + + + + @ /               ",
"        . + =     ( _ # + :             ",
"        . + =         < + [ &           ",
"        . + =           } + |           ",
"        . + =           1 + }           ",
"        . + =           2 3 + 4         ",
"        . + =             5 + 6         ",
"        . + =             7 8 @ 9       ",
"                                        ",
"                                        ",
"                                        ",
"                                        ",
"                                        ",
"                                        ",
"                                        ",
"                                        ",
"                                        ",
"              0 a b # c ] d e f g       ",
"            h c + + + + + + + + i       ",
"          j + + k l m n o p q r s       ",
"        ( = + t                         ",
"        u + d v                         ",
"        w + s                           ",
"        ' + :                           ",
"        x + y         z + + + + x       ",
"        ' + :         z + + + + x       ",
"        A + s               B + x       ",
"        u + d               B + x       ",
"        { C + i             B + x       ",
"          q + + D E F - G H I + J       ",
"            / c + + + + + + + ] K       ",
"              L M d = N O P Q .         ",
"                                        ",
"                                        ",
"                                        ",
"                                        ",
"                                        ",
"                                        ",
"                                        ",
"                                        ",
"                                        ",
"        . + + + + + c J R S             ",
"        . + + + + + + + + 3 m           ",
"        . + =       T ! ] + U           ",
"        . + =           h + w           ",
"        . + =           h + V           ",
"        . + =       { W X + K           ",
"        . + + + + + + + Y )             ",
"        . + + + + + + + Z ` n           ",
"        . + =        ...P + e           ",
"        . + =            .8 @ 0         ",
"        . + =             Y + +.        ",
"        . + =            .8 + @.        ",
"        . + =        .H #.+ = g         ",
"        . + + + + + + + + @ j           ",
"        . + + + + + N ] 6 $.            ",
"                                        ",
"                                        ",
"                                        "};
