/* XPM */
static char * Sphere_xpm[] = {
"105 20 112 2",
"  	c #000000",
". 	c #0D0D0D",
"+ 	c #A5A5A5",
"@ 	c #E1E1E1",
"# 	c #F8F8F8",
"$ 	c #FCFCFC",
"% 	c #F0F0F0",
"& 	c #DDDDDD",
"* 	c #ACACAC",
"= 	c #515151",
"- 	c #787878",
"; 	c #FFFFFF",
"> 	c #D0D0D0",
", 	c #D6D6D6",
"' 	c #DBDBDB",
") 	c #9D9D9D",
"! 	c #FDFDFD",
"~ 	c #B6B6B6",
"{ 	c #656565",
"] 	c #2E2E2E",
"^ 	c #5D5D5D",
"/ 	c #8B8B8B",
"( 	c #C8C8C8",
"_ 	c #CECECE",
": 	c #BCBCBC",
"< 	c #A0A0A0",
"[ 	c #666666",
"} 	c #D7D7D7",
"| 	c #F7F7F7",
"1 	c #FBFBFB",
"2 	c #E2E2E2",
"3 	c #585858",
"4 	c #D1D1D1",
"5 	c #F6F6F6",
"6 	c #E7E7E7",
"7 	c #939393",
"8 	c #828282",
"9 	c #F5F5F5",
"0 	c #F3F3F3",
"a 	c #626262",
"b 	c #D3D3D3",
"c 	c #818181",
"d 	c #B2B2B2",
"e 	c #454545",
"f 	c #FEFEFE",
"g 	c #989898",
"h 	c #DCDCDC",
"i 	c #F2F2F2",
"j 	c #868686",
"k 	c #A9A9A9",
"l 	c #737373",
"m 	c #383838",
"n 	c #EEEEEE",
"o 	c #BDBDBD",
"p 	c #969696",
"q 	c #474747",
"r 	c #8C8C8C",
"s 	c #404040",
"t 	c #6C6C6C",
"u 	c #E8E8E8",
"v 	c #888888",
"w 	c #3D3D3D",
"x 	c #D4D4D4",
"y 	c #D8D8D8",
"z 	c #707070",
"A 	c #F4F4F4",
"B 	c #A3A3A3",
"C 	c #C3C3C3",
"D 	c #E3E3E3",
"E 	c #EAEAEA",
"F 	c #8A8A8A",
"G 	c #4F4F4F",
"H 	c #C7C7C7",
"I 	c #4B4B4B",
"J 	c #6A6A6A",
"K 	c #9E9E9E",
"L 	c #535353",
"M 	c #858585",
"N 	c #555555",
"O 	c #5F5F5F",
"P 	c #161616",
"Q 	c #767676",
"R 	c #A4A4A4",
"S 	c #F9F9F9",
"T 	c #EBEBEB",
"U 	c #AAAAAA",
"V 	c #C1C1C1",
"W 	c #ECECEC",
"X 	c #7F7F7F",
"Y 	c #E0E0E0",
"Z 	c #959595",
"` 	c #CACACA",
" .	c #E9E9E9",
"..	c #C4C4C4",
"+.	c #606060",
"@.	c #696969",
"#.	c #CBCBCB",
"$.	c #C0C0C0",
"%.	c #C5C5C5",
"&.	c #9B9B9B",
"*.	c #CDCDCD",
"=.	c #878787",
"-.	c #EDEDED",
";.	c #727272",
">.	c #4D4D4D",
",.	c #7C7C7C",
"'.	c #B9B9B9",
").	c #D9D9D9",
"!.	c #999999",
"~.	c #777777",
"{.	c #F1F1F1",
"].	c #E6E6E6",
"                                                                                                                                                                                                                  ",
"    . + @ # $ % & * =                                 - ; >                                                                                                                                                       ",
"  . , ; ; ; ; ; ; ; '                                 - ; >                                                                                                                                                       ",
"  ) ; ! ~ { ] ^ / ( _                                 - ; >                                                                                                                                                       ",
"  _ ; :                                               - ; >                                                                                                                                                       ",
"  > ; <                     - ; > [ } | 1 2 /         - ; > 3 4 5 1 6 7             8 } 9 ! 0 > [       - ; > a b 5 ; c     8 } 9 ! 0 > [                                                                         ",
"  d ; @ e                   - ; & 9 ; ; ; ; f g       - ; h i ; ; ; ; f j         k f ; ; ; ; ; # l     - ; & 9 ; ; ; c   k f ; ; ; ; ; # l                                                                       ",
"  m n ; 1 h o p q           - ; ; n r s t 4 ; 5 m     - ; ; u v w a x ; y       z ! A B 3 ] [ C ; D     - ; ; E F w     z ! A B 3 ] [ C ; D                                                                       ",
"    G H 5 ; ; ; $ > I       - ; ! J         D ; K     - ; # L       w 1 A       ( ; M           ' ; N   - ; 1 O         ( ; M           ' ; N                                                                     ",
"        P Q R _ S ; T ]     - ; D           U ; V     - ; '           W $       6 ; f f f f ; ; ; ; X   - ; Y           6 ; f f f f ; ; ; ; X                                                                     ",
"                L % ; B     - ; x           Z ; `     - ; >            .f       % ; ; ; ; ; ; ; ; ; M   - ; 4           % ; ; ; ; ; ; ; ; ; M                                                                     ",
"                  C ; ..    - ; D           U ; V     - ; >            .f        .; +.                  - ; >            .; +.                                                                                    ",
"                  ' ; o     - ; ! @.        2 ; K     - ; >            .f       #.; $.                  - ; >           #.; $.                                                                                    ",
"  %.4 &.z s w - *.; ; =.    - ; ; -.F w J _ ; 5 m     - ; >            .f       ;.! ; ( Q w >.,.'.).    - ; >           ;.! ; ( Q w >.,.'.).                                                                      ",
"  > ; ; ; ; ; ; ; ; `       - ; & 5 ; ; ; ; f !.      - ; >            .f         R ! ; ; ; ; ; ; T     - ; >             R ! ; ; ; ; ; ; T                                                                       ",
"  e < x W S $ 0 y p         - ; > @.y | 1 D r         - ; >            .f           ~.> {.$ 5 ].o {     - ; >               ~.> {.$ 5 ].o {                                                                       ",
"                            - ; >                                                                                                                                                                                 ",
"                            - ; >                                                                                                                                                                                 ",
"                            - ; >                                                                                                                                                                                 ",
"                            - ; >                                                                                                                                                                                 "};
