/* XPM */
static char * Texture_xpm[] = {
"105 20 106 2",
"  	c #000000",
". 	c #474747",
"+ 	c #FFFFFF",
"@ 	c #919191",
"# 	c #696969",
"$ 	c #D4D4D4",
"% 	c #F1F1F1",
"& 	c #565656",
"* 	c #828282",
"= 	c #D7D7D7",
"- 	c #F5F5F5",
"; 	c #FDFDFD",
"> 	c #F3F3F3",
", 	c #D0D0D0",
"' 	c #666666",
") 	c #D8D8D8",
"! 	c #AFAFAF",
"~ 	c #BEBEBE",
"{ 	c #CDCDCD",
"] 	c #B6B6B6",
"^ 	c #A2A2A2",
"/ 	c #949494",
"( 	c #BCBCBC",
"_ 	c #F8F8F8",
": 	c #EFEFEF",
"< 	c #787878",
"[ 	c #626262",
"} 	c #D3D3D3",
"| 	c #F6F6F6",
"1 	c #818181",
"2 	c #A9A9A9",
"3 	c #FEFEFE",
"4 	c #737373",
"5 	c #4B4B4B",
"6 	c #FCFCFC",
"7 	c #797979",
"8 	c #8C8C8C",
"9 	c #ECECEC",
"0 	c #383838",
"a 	c #DDDDDD",
"b 	c #707070",
"c 	c #F4F4F4",
"d 	c #A3A3A3",
"e 	c #585858",
"f 	c #2E2E2E",
"g 	c #C3C3C3",
"h 	c #E3E3E3",
"i 	c #838383",
"j 	c #EEEEEE",
"k 	c #3D3D3D",
"l 	c #535353",
"m 	c #FBFBFB",
"n 	c #727272",
"o 	c #EAEAEA",
"p 	c #8A8A8A",
"q 	c #C8C8C8",
"r 	c #858585",
"s 	c #DBDBDB",
"t 	c #555555",
"u 	c #D2D2D2",
"v 	c #DEDEDE",
"w 	c #A8A8A8",
"x 	c #5F5F5F",
"y 	c #E7E7E7",
"z 	c #7F7F7F",
"A 	c #0D0D0D",
"B 	c #E0E0E0",
"C 	c #F0F0F0",
"D 	c #AAAAAA",
"E 	c #D1D1D1",
"F 	c #E9E9E9",
"G 	c #606060",
"H 	c #6A6A6A",
"I 	c #FAFAFA",
"J 	c #F7F7F7",
"K 	c #323232",
"L 	c #929292",
"M 	c #C0C0C0",
"N 	c #CBCBCB",
"O 	c #E8E8E8",
"P 	c #8E8E8E",
"Q 	c #636363",
"R 	c #D9D9D9",
"S 	c #9B9B9B",
"T 	c #767676",
"U 	c #4D4D4D",
"V 	c #7C7C7C",
"W 	c #B9B9B9",
"X 	c #1C1C1C",
"Y 	c #9D9D9D",
"Z 	c #161616",
"` 	c #A5A5A5",
" .	c #A4A4A4",
"..	c #EBEBEB",
"+.	c #989898",
"@.	c #E4E4E4",
"#.	c #222222",
"$.	c #F9F9F9",
"%.	c #C2C2C2",
"&.	c #777777",
"*.	c #E6E6E6",
"=.	c #BDBDBD",
"-.	c #656565",
";.	c #979797",
">.	c #2A2A2A",
",.	c #BBBBBB",
"                                                                                                                                                                                                                  ",
". + + + + + + + + + + + + @                                                                                                                                                                                       ",
". + + + + + + + + + + + + @                                           # + $                                                                                                                                       ",
"            % + &                                                     # + $                                                                                                                                       ",
"            % + &                                                     # + $                                                                                                                                       ",
"            % + &         * = - ; > , '       ) + !         ~ + {   ] + + + + + + ^   / + (           _ :       < + , [ } | + 1     * = - ; > , '                                                                 ",
"            % + &       2 3 + + + + + _ 4     5 % 6 7     8 3 9 0   ] + + + + + + ^   / + (           _ :       < + a - + + + 1   2 3 + + + + + _ 4                                                               ",
"            % + &     b ; c d e f ' g + h       i ; j k l c m n       # + $           / + (           _ :       < + + o p k     b ; c d e f ' g + h                                                               ",
"            % + &     q + r           s + t       ] + u v + w         # + $           / + (           _ :       < + m x         q + r           s + t                                                             ",
"            % + &     y + 3 3 3 3 + + + + z       A a + + }           # + $           / + (           _ :       < + B           y + 3 3 3 3 + + + + z                                                             ",
"            % + &     C + + + + + + + + + r         D + + z           # + $           / + (           _ :       < + E           C + + + + + + + + + r                                                             ",
"            % + &     F + G                       H I J 3 o K         # + $           L + M         K 3 :       < + ,           F + G                                                                             ",
"            % + &     N + M                     f O + P ~ + N         Q + )           1 + R         S + :       < + ,           N + M                                                                             ",
"            % + &     n ; + q T k U V W R       q + M   X h + Y       0 + c H Z       0 m 3 D . l ` J + :       < + ,           n ; + q T k U V W R                                                               ",
"            % + &        .; + + + + + + ..    +.+ @.#.    x J $.'       B + + + + ^     %.+ + + + + $ _ :       < + ,              .; + + + + + + ..                                                              ",
"            % + &         &., % 6 | *.=.-.  G J _ [         ;.+ *.>.    [ = J + + ^     X ,.% ; C ,.#._ :       < + ,               &., % 6 | *.=.-.                                                              ",
"                                                                                                                                                                                                                  ",
"                                                                                                                                                                                                                  ",
"                                                                                                                                                                                                                  ",
"                                                                                                                                                                                                                  "};
